<?xml version="1.0" encoding="UTF-8"?>
<svg data-bbox="0 0 835.56 256.67" viewBox="0 0 835.56 256.67" xmlns="http://www.w3.org/2000/svg" data-type="color">
    <g>
        <path d="M273.59 49.44c-3.17 0-5.59.09-7.26.28v43.85h6.77c5.45 0 9.85-.55 13.2-1.64 3.35-1.09 6.14-3.39 8.38-6.88s3.35-7.8 3.35-12.92c0-7.82-1.92-13.56-5.76-17.21-3.84-3.65-10.07-5.48-18.68-5.48Z" fill="#4A4843" data-color="1"/>
        <path d="M821.04 16.36H14.52v158.78h806.52V16.36ZM66.7 128.03c6.38 7.57 14.31 11.35 23.81 11.35 5.07 0 10.26-1.23 15.57-3.7 5.31-2.47 9.51-6.64 12.6-12.53 3.1-5.89 4.92-11.58 5.48-17.07h3v33.17h-3c-.84-3.77-2.35-7.1-4.54-9.98-8.33 9.4-18.97 14.1-31.91 14.1-13.69 0-24.87-4.33-33.55-12.99s-13.02-20.11-13.02-34.35c0-9.36 2-18.17 6-26.43 4-8.26 9.59-14.4 16.76-18.4 7.17-4 15.04-6 23.6-6 7.07 0 13.49 1.46 19.24 4.36 5.75 2.91 10.04 6.13 12.88 9.67 2-3.96 3.21-8.05 3.63-12.29h3.07l.84 35.89h-3c-2.09-12.75-6.37-21.62-12.81-26.6-6.45-4.98-13.72-7.47-21.82-7.47-9.92 0-17.79 4.03-23.64 12.08-5.84 8.05-8.76 19.57-8.76 34.56 0 14.2 3.19 25.08 9.57 32.64Zm167.65 13.58h-37.22v-3.21c4.56 0 7.65-.34 9.25-1.01 1.61-.67 2.41-2.01 2.41-4.01 0-1.02-1.07-4.07-3.21-9.15l-7.26-17.53h-35.96l-2.44 6c-3.63 8.71-5.45 14.38-5.45 17.04 0 2.84.97 4.99 2.9 6.46 1.93 1.47 4.41 2.2 7.44 2.2v3.21h-28.14v-3.21c4.19-.65 7.31-2.13 9.36-4.43s4.51-7.16 7.4-14.56c.23-.7 1.35-3.4 3.35-8.1l27.51-65.7h2.72l31.63 75.2 4.33 9.92c.98 2.23 2.29 3.99 3.94 5.27 1.65 1.28 4.13 2.08 7.44 2.41v3.21Zm75.03-56.63c-2.3 3.96-5.61 6.96-9.92 9.01s-11.88 3.07-22.73 3.07h-10.4v19.9c0 7.45.17 12.32.52 14.63.35 2.3 1.29 4.01 2.83 5.13s4.42 1.68 8.66 1.68h3.14v3.21h-43.36v-3.21h2.51c4.05 0 6.85-.51 8.41-1.54 1.56-1.02 2.55-2.62 2.97-4.78.42-2.16.63-7.2.63-15.12V70.53c0-7.54-.21-12.4-.63-14.59-.42-2.19-1.35-3.7-2.79-4.54-1.44-.84-4.56-1.26-9.36-1.26h-1.75v-3.21l11.87-.42c9.5-.33 16.9-.49 22.2-.49 9.78 0 17.3.77 22.59 2.3 5.28 1.54 9.61 4.26 12.99 8.17 3.37 3.91 5.06 8.84 5.06 14.8 0 5.17-1.15 9.73-3.46 13.69Zm67.28 50.76c-5.4 5.07-12.62 7.61-21.64 7.61-10.38 0-19.04-3.98-25.97-11.94-1.54 2.19-2.68 5.26-3.42 9.22h-3.49v-30.44h3.49c3.96 19.83 13.34 29.75 28.14 29.75 6.66 0 11.81-1.9 15.47-5.69 3.65-3.79 5.48-8.04 5.48-12.74s-1.61-8.73-4.82-11.94c-3.21-3.17-9.08-6.56-17.6-10.19-7.59-3.26-13.31-6.11-17.18-8.55-3.86-2.44-6.88-5.62-9.04-9.53-2.17-3.91-3.25-8.08-3.25-12.5 0-6.75 2.34-12.37 7.02-16.86s10.6-6.74 17.77-6.74c4 0 7.77.65 11.31 1.96 3.54 1.3 7.17 4 10.89 8.1 2.14-2.56 3.35-5.33 3.63-8.31h3.07v24.79h-3.07c-1.77-7.21-4.9-12.89-9.39-17.04-4.49-4.14-9.7-6.21-15.61-6.21s-9.76 1.53-12.39 4.57c-2.63 3.05-3.94 6.39-3.94 10.02 0 4.38 1.65 8.08 4.96 11.1 3.26 3.07 9.15 6.52 17.67 10.33 8.14 3.63 14.07 6.55 17.77 8.76 3.7 2.21 6.67 5.27 8.9 9.18s3.35 8.43 3.35 13.55c0 8.1-2.7 14.69-8.1 19.76Zm108.16-66.05c-1.07-6.24-2.54-10.74-4.4-13.51-1.86-2.77-3.86-4.47-6-5.1-2.14-.63-5.8-.94-10.96-.94h-15.22v66.82c0 7.4.17 12.27.52 14.59.35 2.33 1.29 4.05 2.83 5.17s4.42 1.68 8.66 1.68h4.61v3.21h-47.2v-3.21h4.89c4.05 0 6.85-.51 8.41-1.54 1.56-1.02 2.56-2.62 3-4.78.44-2.16.66-7.2.66-15.12V50.14h-14.04c-6.1 0-10.19.29-12.29.87-2.09.58-4.06 2.34-5.9 5.27-1.84 2.93-3.25 7.4-4.22 13.41h-3.21l.49-22.76h91.89l.49 22.76h-3Zm95.9 60.05c-9.47 9.08-21.94 13.62-37.39 13.62s-27.37-4.54-37.01-13.62-14.45-21.11-14.45-36.1 4.89-26.35 14.66-35.19c9.78-8.84 21.97-13.27 36.59-13.27s27.08 4.38 36.97 13.13S594.93 79 594.93 94.13s-4.74 26.53-14.21 35.61Zm127.33-79.6c-4 .33-7.16 1.09-9.46 2.3-2.3 1.21-3.77 2.67-4.4 4.36-.63 1.7-.94 4.57-.94 8.62v78.34h-3l-66.96-88.75v65.7c0 5.45.27 9.03.8 10.75.54 1.72 2.06 3.31 4.57 4.75 2.51 1.44 6.29 2.16 11.31 2.16v3.21h-35.33v-3.21c4.51-.33 7.96-1.15 10.33-2.48 2.38-1.33 3.78-2.76 4.22-4.29s.66-5.17.66-10.89v-50.2c0-7.26-.34-12.13-1.01-14.59-.68-2.47-1.75-4.05-3.21-4.75-1.47-.7-4.74-1.05-9.81-1.05v-3.21h27.93l56.07 74.08V64.36c0-4.19-.43-7.12-1.29-8.8-.86-1.68-2.62-3-5.27-3.98-2.65-.98-5.84-1.47-9.57-1.47V46.9h34.35v3.21Zm84.35 91.47h-78.41v-3.21h1.96c4.7 0 7.74-.63 9.11-1.89s2.25-2.85 2.62-4.78c.37-1.93.56-6.85.56-14.77V70.53c0-7.21-.2-11.96-.59-14.24-.4-2.28-1.3-3.88-2.72-4.78-1.42-.91-4.41-1.36-8.97-1.36v-3.21h67.66l2.23 23.6h-3.28c-1.49-6.61-3.32-11.3-5.48-14.07-2.17-2.77-4.74-4.51-7.72-5.24-2.98-.72-7.77-1.08-14.38-1.08h-13.13v39.73h10.05c4.61 0 7.83-.4 9.67-1.19 1.84-.79 3.05-1.99 3.63-3.6.58-1.61.87-4.74.87-9.39h3.28v32.4h-3.28c0-5.26-.44-8.79-1.33-10.58-.88-1.79-2.18-2.96-3.88-3.49-1.7-.53-4.57-.8-8.62-.8h-10.4v22.41c0 11.22.72 17.82 2.16 19.79 1.44 1.98 5.33 2.97 11.66 2.97h7.05c4.98 0 9.08-.64 12.29-1.92 3.21-1.28 6.27-3.91 9.18-7.89 2.91-3.98 5.2-9.46 6.88-16.44h3.35l-2.03 29.47Z" fill="#4A4843" data-color="1"/>
        <path fill="#4A4843" d="M163.69 103.55h33.45L180.38 63.2l-16.69 40.35z" data-color="1"/>
        <path d="M543.18 48.67c-11.41 0-20.14 3.83-26.22 11.49-6.08 7.66-9.11 18.98-9.11 33.97s3.04 26.65 9.11 34.28c6.07 7.63 15.19 11.45 27.34 11.45 10.66 0 19.08-3.82 25.28-11.45 6.19-7.63 9.29-19.02 9.29-34.14s-3.05-25.99-9.15-33.83c-6.1-7.84-14.94-11.77-26.53-11.77Z" fill="#4A4843" data-color="1"/>
        <path d="M32.44 234.34c-3.63-4.9-6.26-7.74-7.9-8.53 3.65-.44 6.42-1.57 8.3-3.37 1.88-1.81 2.82-3.99 2.82-6.54 0-2.19-.72-4.07-2.16-5.65-1.44-1.58-3.33-2.71-5.66-3.4s-5.37-1.04-9.09-1.04c-2.19 0-5.15.09-8.88.26l-5.59.29v1.33h.66c1.98 0 3.27.17 3.86.52.6.35.98.97 1.15 1.87.17.9.26 2.91.26 6.02v19.16c0 3.27-.09 5.35-.26 6.24-.17.89-.58 1.55-1.22 1.97-.64.42-1.8.63-3.47.63H3.99v1.33h18.7v-1.33h-1.87c-1.77 0-2.96-.23-3.59-.69-.62-.46-1.01-1.17-1.15-2.12-.14-.95-.22-2.96-.22-6.04v-8.67h1.56c1.06 0 1.83.18 2.33.53.5.36 1.41 1.34 2.74 2.97 1.33 1.62 2.6 3.32 3.83 5.09 3.84 5.53 6.7 8.95 8.56 10.26H45.4v-1.33c-2.31-.08-4.3-.73-5.99-1.96-1.69-1.23-4.02-3.83-6.97-7.81Zm-12.1-9.25c-1.54.08-3.03.13-4.47.17v-17.87c.92-.08 1.74-.12 2.45-.12 4.61 0 7.6.83 8.98 2.48 1.37 1.65 2.06 3.85 2.06 6.6 0 1.58-.2 2.9-.61 3.98-.4 1.08-.96 1.95-1.66 2.61-.7.66-1.62 1.17-2.75 1.51-1.13.35-2.47.56-4.01.63Z" fill="#4A4843" data-color="1"/>
        <path d="M76.38 240.06c-1.2 1.64-2.46 2.73-3.79 3.26-1.33.53-3.02.79-5.07.79h-2.91c-2.61 0-4.22-.41-4.81-1.22-.6-.82-.89-3.54-.89-8.17v-9.25h4.29c1.67 0 2.86.11 3.56.33.7.22 1.23.7 1.6 1.44.36.74.55 2.2.55 4.37h1.35v-13.37h-1.35c0 1.92-.12 3.21-.36 3.88-.24.66-.74 1.16-1.5 1.48-.76.33-2.09.49-3.99.49h-4.15v-16.4h5.42c2.73 0 4.71.15 5.94.45 1.23.3 2.29 1.02 3.18 2.16.89 1.14 1.65 3.08 2.26 5.81h1.35l-.92-9.74H48.21v1.33c1.88 0 3.12.19 3.7.56.59.37.96 1.03 1.12 1.97.16.94.25 2.9.25 5.88v19.16c0 3.27-.08 5.3-.23 6.1-.15.8-.51 1.46-1.08 1.97s-1.82.78-3.76.78h-.81v1.33h32.36l.84-12.16h-1.38c-.69 2.88-1.64 5.14-2.84 6.79Z" fill="#4A4843" data-color="1"/>
        <path d="m118.07 240.94-1.79-4.09-13.05-31.04h-1.12l-11.35 27.12c-.83 1.94-1.29 3.05-1.38 3.34-1.19 3.05-2.21 5.06-3.06 6.01-.85.95-2.13 1.56-3.86 1.83v1.33h11.61v-1.33c-1.25 0-2.27-.3-3.07-.91-.8-.61-1.2-1.49-1.2-2.67 0-1.1.75-3.44 2.25-7.03l1.01-2.48h14.84l3 7.23c.88 2.09 1.33 3.35 1.33 3.78 0 .83-.33 1.38-.99 1.66-.66.28-1.94.42-3.82.42v1.33h15.36v-1.33c-1.36-.13-2.39-.47-3.07-.99-.68-.53-1.22-1.25-1.63-2.18ZM93.6 229.73l6.89-16.66 6.92 16.66h-13.8Z" fill="#4A4843" data-color="1"/>
        <path d="M153.32 240.71c-1.05 1.42-2.15 2.34-3.31 2.77-1.16.42-2.94.63-5.35.63h-2.97c-2.25 0-3.71-.2-4.4-.59-.68-.39-1.1-.95-1.25-1.66-.15-.71-.23-2.48-.23-5.3V216.1c0-3.25.1-5.3.3-6.17.2-.86.6-1.46 1.2-1.77.6-.32 1.85-.48 3.78-.48h1.73v-1.33h-18.76v1.33h.86c1.98 0 3.26.17 3.85.52.59.35.97.97 1.15 1.87.18.9.27 2.91.27 6.02v19.16c0 3.27-.09 5.35-.27 6.24-.18.89-.6 1.55-1.24 1.97-.64.42-1.8.63-3.47.63h-1.15v1.33h33.2l.29-11.5h-1.35c-.86 3.09-1.82 5.35-2.87 6.77Z" fill="#4A4843" data-color="1"/>
        <path d="M203.64 240.06c-1.2 1.64-2.46 2.73-3.79 3.26-1.33.53-3.02.79-5.07.79h-2.91c-2.61 0-4.22-.41-4.81-1.22-.6-.82-.89-3.54-.89-8.17v-9.25h4.29c1.67 0 2.86.11 3.56.33.7.22 1.23.7 1.6 1.44.36.74.55 2.2.55 4.37h1.35v-13.37h-1.35c0 1.92-.12 3.21-.36 3.88-.24.66-.74 1.16-1.5 1.48-.76.33-2.09.49-3.99.49h-4.15v-16.4h5.42c2.73 0 4.71.15 5.94.45 1.23.3 2.29 1.02 3.18 2.16.89 1.14 1.65 3.08 2.26 5.81h1.35l-.92-9.74h-27.93v1.33c1.88 0 3.12.19 3.7.56.59.37.96 1.03 1.12 1.97.16.94.24 2.9.24 5.88v19.16c0 3.27-.08 5.3-.23 6.1-.15.8-.51 1.46-1.08 1.97s-1.82.78-3.76.78h-.81v1.33h32.36l.84-12.16h-1.38c-.69 2.88-1.64 5.14-2.84 6.79Z" fill="#4A4843" data-color="1"/>
        <path d="M233.87 225.48c-1.53-.91-3.97-2.12-7.33-3.62-3.52-1.57-5.95-3-7.29-4.27-1.36-1.25-2.05-2.78-2.05-4.58 0-1.5.54-2.88 1.63-4.14 1.09-1.26 2.79-1.89 5.12-1.89 2.44 0 4.59.85 6.44 2.56 1.85 1.71 3.15 4.05 3.88 7.03h1.27v-10.23h-1.27c-.12 1.23-.62 2.37-1.5 3.43-1.54-1.69-3.04-2.8-4.5-3.34s-3.02-.81-4.67-.81c-2.96 0-5.4.93-7.33 2.78-1.93 1.85-2.9 4.17-2.9 6.96 0 1.83.45 3.54 1.34 5.16.89 1.61 2.14 2.93 3.73 3.93 1.59 1.01 3.96 2.19 7.09 3.53 3.52 1.5 5.94 2.9 7.26 4.21 1.33 1.33 1.99 2.97 1.99 4.93s-.75 3.69-2.26 5.26c-1.51 1.57-3.64 2.35-6.38 2.35-6.11 0-9.98-4.09-11.61-12.28h-1.44v12.56h1.44c.31-1.63.78-2.9 1.41-3.8 2.86 3.29 6.44 4.93 10.72 4.93 3.73 0 6.7-1.05 8.93-3.14 2.23-2.09 3.34-4.81 3.34-8.16 0-2.11-.46-3.98-1.38-5.59-.92-1.61-2.15-2.88-3.67-3.79Z" fill="#4A4843" data-color="1"/>
        <path d="M280.23 215.75h1.24l-.2-9.4h-37.93l-.2 9.4h1.33c.4-2.48.98-4.32 1.74-5.53s1.57-1.94 2.43-2.18c.87-.24 2.56-.36 5.07-.36h5.79v27.58c0 3.27-.09 5.35-.27 6.24-.18.89-.6 1.55-1.24 1.97-.64.42-1.8.63-3.47.63h-2.02v1.33h19.48v-1.33h-1.9c-1.75 0-2.94-.23-3.57-.69-.63-.46-1.02-1.17-1.17-2.13-.14-.96-.22-2.97-.22-6.02v-27.58h6.28c2.13 0 3.64.13 4.52.39.88.26 1.71.96 2.48 2.1.77 1.14 1.37 3 1.82 5.58Z" fill="#4A4843" data-color="1"/>
        <path d="m313.51 240.94-1.79-4.09-13.05-31.04h-1.12l-11.35 27.12c-.83 1.94-1.29 3.05-1.38 3.34-1.19 3.05-2.21 5.06-3.06 6.01-.85.95-2.13 1.56-3.86 1.83v1.33h11.61v-1.33c-1.25 0-2.27-.3-3.07-.91-.8-.61-1.2-1.49-1.2-2.67 0-1.1.75-3.44 2.25-7.03l1.01-2.48h14.84l3 7.23c.88 2.09 1.33 3.35 1.33 3.78 0 .83-.33 1.38-.99 1.66-.66.28-1.94.42-3.82.42v1.33h15.36v-1.33c-1.36-.13-2.39-.47-3.07-.99-.68-.53-1.22-1.25-1.63-2.18Zm-24.47-11.21 6.89-16.66 6.92 16.66h-13.8Z" fill="#4A4843" data-color="1"/>
        <path d="m315.16 206.36-.2 9.4h1.33c.4-2.48.98-4.32 1.74-5.53s1.57-1.94 2.44-2.18c.86-.24 2.55-.36 5.07-.36h5.79v27.58c0 3.27-.09 5.35-.27 6.24-.18.89-.6 1.55-1.24 1.97-.64.42-1.8.63-3.47.63h-2.02v1.33h19.48v-1.33h-1.9c-1.75 0-2.94-.23-3.57-.69-.63-.46-1.02-1.17-1.17-2.13-.14-.96-.22-2.97-.22-6.02v-27.58h6.28c2.13 0 3.64.13 4.52.39.88.26 1.71.96 2.48 2.1.77 1.14 1.37 3 1.82 5.58h1.24l-.2-9.4h-37.93Z" fill="#4A4843" data-color="1"/>
        <path d="M385.49 240.06c-1.2 1.64-2.46 2.73-3.79 3.26-1.33.53-3.02.79-5.07.79h-2.91c-2.61 0-4.22-.41-4.81-1.22-.6-.82-.89-3.54-.89-8.17v-9.25h4.29c1.67 0 2.86.11 3.56.33.7.22 1.23.7 1.6 1.44.36.74.55 2.2.55 4.37h1.35v-13.37h-1.35c0 1.92-.12 3.21-.36 3.88-.24.66-.74 1.16-1.5 1.48-.76.33-2.09.49-3.99.49h-4.15v-16.4h5.42c2.73 0 4.71.15 5.94.45 1.23.3 2.29 1.02 3.18 2.16.89 1.14 1.65 3.08 2.26 5.81h1.35l-.92-9.74h-27.93v1.33c1.88 0 3.12.19 3.7.56.59.37.96 1.03 1.12 1.97.16.94.25 2.9.25 5.88v19.16c0 3.27-.08 5.3-.23 6.1-.15.8-.51 1.46-1.08 1.97-.57.52-1.82.78-3.76.78h-.81v1.33h32.36l.84-12.16h-1.38c-.69 2.88-1.64 5.14-2.84 6.79Z" fill="#4A4843" data-color="1"/>
        <path d="M430.48 225.48c-1.53-.91-3.97-2.12-7.33-3.62-3.52-1.57-5.95-3-7.29-4.27-1.36-1.25-2.05-2.78-2.05-4.58 0-1.5.54-2.88 1.63-4.14 1.09-1.26 2.79-1.89 5.12-1.89 2.44 0 4.59.85 6.44 2.56 1.85 1.71 3.15 4.05 3.88 7.03h1.27v-10.23h-1.27c-.12 1.23-.62 2.37-1.5 3.43-1.54-1.69-3.04-2.8-4.5-3.34s-3.02-.81-4.67-.81c-2.96 0-5.4.93-7.33 2.78-1.93 1.85-2.9 4.17-2.9 6.96 0 1.83.45 3.54 1.34 5.16.89 1.61 2.14 2.93 3.73 3.93 1.59 1.01 3.96 2.19 7.09 3.53 3.52 1.5 5.94 2.9 7.26 4.21 1.33 1.33 1.99 2.97 1.99 4.93s-.75 3.69-2.26 5.26c-1.51 1.57-3.64 2.35-6.38 2.35-6.11 0-9.98-4.09-11.61-12.28h-1.44v12.56h1.44c.31-1.63.78-2.9 1.41-3.8 2.86 3.29 6.44 4.93 10.72 4.93 3.73 0 6.7-1.05 8.93-3.14 2.23-2.09 3.34-4.81 3.34-8.16 0-2.11-.46-3.98-1.38-5.59-.92-1.61-2.15-2.88-3.67-3.79Z" fill="#4A4843" data-color="1"/>
        <path d="M469.09 240.06c-1.2 1.64-2.46 2.73-3.79 3.26-1.33.53-3.02.79-5.07.79h-2.91c-2.61 0-4.22-.41-4.81-1.22-.6-.82-.89-3.54-.89-8.17v-9.25h4.29c1.67 0 2.86.11 3.56.33.7.22 1.23.7 1.6 1.44.36.74.55 2.2.55 4.37h1.35v-13.37h-1.35c0 1.92-.12 3.21-.36 3.88-.24.66-.74 1.16-1.5 1.48-.76.33-2.09.49-3.99.49h-4.15v-16.4h5.42c2.73 0 4.71.15 5.94.45 1.23.3 2.29 1.02 3.18 2.16.89 1.14 1.65 3.08 2.26 5.81h1.35l-.92-9.74h-27.93v1.33c1.88 0 3.12.19 3.7.56.59.37.96 1.03 1.12 1.97.16.94.25 2.9.25 5.88v19.16c0 3.27-.08 5.3-.23 6.1-.15.8-.51 1.46-1.08 1.97s-1.82.78-3.76.78h-.81v1.33h32.36l.84-12.16h-1.38c-.69 2.88-1.64 5.14-2.84 6.79Z" fill="#4A4843" data-color="1"/>
        <path d="M505.07 234.34c-3.63-4.9-6.26-7.74-7.9-8.53 3.65-.44 6.42-1.57 8.3-3.37 1.88-1.81 2.82-3.99 2.82-6.54 0-2.19-.72-4.07-2.16-5.65-1.44-1.58-3.33-2.71-5.66-3.4s-5.36-1.04-9.09-1.04c-2.19 0-5.15.09-8.88.26l-5.59.29v1.33h.66c1.98 0 3.27.17 3.86.52.6.35.98.97 1.15 1.87.17.9.26 2.91.26 6.02v19.16c0 3.27-.09 5.35-.26 6.24-.17.89-.58 1.55-1.22 1.97-.64.42-1.8.63-3.47.63h-1.27v1.33h18.7v-1.33h-1.87c-1.77 0-2.96-.23-3.59-.69-.62-.46-1.01-1.17-1.15-2.12-.14-.95-.22-2.96-.22-6.04v-8.67h1.56c1.06 0 1.83.18 2.33.53.5.36 1.41 1.34 2.74 2.97 1.33 1.62 2.6 3.32 3.83 5.09 3.84 5.53 6.7 8.95 8.56 10.26h10.52v-1.33c-2.31-.08-4.3-.73-5.99-1.96-1.69-1.23-4.02-3.83-6.97-7.81Zm-12.1-9.25c-1.54.08-3.03.13-4.47.17v-17.87c.92-.08 1.74-.12 2.45-.12 4.61 0 7.6.83 8.98 2.48 1.37 1.65 2.06 3.85 2.06 6.6 0 1.58-.2 2.9-.61 3.98-.4 1.08-.96 1.95-1.66 2.61-.7.66-1.62 1.17-2.75 1.51-1.13.35-2.47.56-4.01.63Z" fill="#4A4843" data-color="1"/>
        <path d="M541.39 207.68c3.13.08 4.7 1.22 4.7 3.43 0 1.09-.76 3.45-2.28 7.06l-9.02 21.59-11.24-25.94c-.9-2.06-1.35-3.36-1.35-3.92 0-.86.36-1.45 1.08-1.76.72-.31 2.13-.46 4.22-.46v-1.33h-16.83v1.33c1.84.04 3.18.37 4.01 1.01.83.63 1.61 1.87 2.36 3.72.54 1.36.93 2.32 1.18 2.88l13.49 31.07h1.79l11.61-27.61 2.62-6.14c.67-1.59 1.47-2.8 2.39-3.63.92-.83 1.99-1.26 3.2-1.3v-1.33h-11.93v1.33Z" fill="#4A4843" data-color="1"/>
        <path d="M555.05 207.68h.84c1.98 0 3.27.17 3.86.52.6.35.98.97 1.15 1.87.17.9.26 2.91.26 6.02v19.16c0 3.27-.09 5.35-.26 6.24-.17.89-.58 1.55-1.22 1.97-.64.42-1.8.63-3.47.63h-1.15v1.33h17.87v-1.33h-1.15c-1.77 0-2.96-.23-3.59-.69-.62-.46-1.01-1.17-1.15-2.12-.14-.95-.22-2.96-.22-6.04v-19.16c0-3.25.1-5.3.3-6.17.2-.86.6-1.46 1.2-1.77.59-.32 1.85-.48 3.78-.48h.84v-1.33h-17.87v1.33Z" fill="#4A4843" data-color="1"/>
        <path d="M597.41 207.11c3.34 0 6.34 1.03 9.01 3.08 2.66 2.06 4.42 5.72 5.29 10.98h1.24l-.35-14.81h-1.27c-.17 1.75-.67 3.44-1.5 5.07-1.17-1.46-2.94-2.79-5.32-3.99-2.37-1.2-5.02-1.8-7.94-1.8-3.54 0-6.78.83-9.74 2.48s-5.26 4.18-6.92 7.59c-1.65 3.41-2.48 7.05-2.48 10.91 0 5.88 1.79 10.61 5.37 14.18 3.58 3.57 8.2 5.36 13.85 5.36 5.34 0 9.73-1.94 13.17-5.82.9 1.19 1.53 2.56 1.87 4.12h1.24v-13.69h-1.24c-.23 2.27-.98 4.62-2.26 7.05-1.28 2.43-3.01 4.16-5.2 5.17-2.19 1.02-4.33 1.53-6.43 1.53-3.92 0-7.2-1.56-9.83-4.68-2.63-3.12-3.95-7.61-3.95-13.47 0-6.19 1.21-10.94 3.62-14.27 2.41-3.32 5.66-4.99 9.76-4.99Z" fill="#4A4843" data-color="1"/>
        <path d="M647.68 240.06c-1.2 1.64-2.46 2.73-3.79 3.26-1.33.53-3.02.79-5.07.79h-2.91c-2.61 0-4.22-.41-4.81-1.22-.6-.82-.89-3.54-.89-8.17v-9.25h4.29c1.67 0 2.86.11 3.56.33.7.22 1.23.7 1.6 1.44.36.74.55 2.2.55 4.37h1.35v-13.37h-1.35c0 1.92-.12 3.21-.36 3.88-.24.66-.74 1.16-1.5 1.48-.76.33-2.09.49-3.99.49h-4.15v-16.4h5.42c2.73 0 4.71.15 5.94.45 1.23.3 2.29 1.02 3.18 2.16.89 1.14 1.65 3.08 2.26 5.81h1.35l-.92-9.74h-27.93v1.33c1.88 0 3.12.19 3.7.56.59.37.96 1.03 1.12 1.97.16.94.24 2.9.24 5.88v19.16c0 3.27-.08 5.3-.23 6.1-.15.8-.51 1.46-1.08 1.97s-1.82.78-3.76.78h-.81v1.33h32.36l.84-12.16h-1.38c-.69 2.88-1.64 5.14-2.84 6.79Z" fill="#4A4843" data-color="1"/>
        <path d="M677.92 225.48c-1.53-.91-3.97-2.12-7.33-3.62-3.52-1.57-5.95-3-7.29-4.27-1.36-1.25-2.05-2.78-2.05-4.58 0-1.5.54-2.88 1.63-4.14 1.09-1.26 2.79-1.89 5.12-1.89 2.44 0 4.59.85 6.44 2.56 1.85 1.71 3.15 4.05 3.88 7.03h1.27v-10.23h-1.27c-.12 1.23-.62 2.37-1.5 3.43-1.54-1.69-3.04-2.8-4.5-3.34s-3.02-.81-4.67-.81c-2.96 0-5.4.93-7.33 2.78-1.93 1.85-2.9 4.17-2.9 6.96 0 1.83.45 3.54 1.34 5.16.89 1.61 2.14 2.93 3.73 3.93 1.59 1.01 3.96 2.19 7.09 3.53 3.52 1.5 5.94 2.9 7.26 4.21 1.33 1.33 1.99 2.97 1.99 4.93s-.75 3.69-2.26 5.26c-1.51 1.57-3.64 2.35-6.38 2.35-6.11 0-9.98-4.09-11.61-12.28h-1.44v12.56h1.44c.31-1.63.78-2.9 1.41-3.8 2.86 3.29 6.44 4.93 10.72 4.93 3.73 0 6.7-1.05 8.93-3.14 2.23-2.09 3.34-4.81 3.34-8.16 0-2.11-.46-3.98-1.38-5.59-.92-1.61-2.15-2.88-3.67-3.79Z" fill="#4A4843" data-color="1"/>
        <path d="M690.9 240.19c-.88 0-1.6.29-2.16.86-.56.58-.84 1.31-.84 2.19 0 .83.29 1.49.86 2 .58.51 1.3.76 2.16.76.25 0 .52-.05.81-.14.35-.1.6-.14.75-.14.81 0 1.21.63 1.21 1.9 0 1.5-.57 2.99-1.7 4.48-1.13 1.49-2.72 2.53-4.76 3.13v1.44c2.54-.65 4.55-1.9 6.04-3.75 1.49-1.84 2.23-3.99 2.23-6.43 0-1.69-.43-3.17-1.28-4.42-.85-1.26-1.96-1.89-3.33-1.89Z" fill="#4A4843" data-color="1"/>
        <path d="M715.08 207.68h.84c1.98 0 3.27.17 3.86.52.6.35.98.97 1.15 1.87.17.9.26 2.91.26 6.02v19.16c0 3.27-.09 5.35-.26 6.24-.17.89-.58 1.55-1.23 1.97-.64.42-1.8.63-3.47.63h-1.15v1.33h17.87v-1.33h-1.15c-1.77 0-2.96-.23-3.59-.69-.62-.46-1.01-1.17-1.15-2.12-.14-.95-.22-2.96-.22-6.04v-19.16c0-3.25.1-5.3.3-6.17.2-.86.6-1.46 1.2-1.77.59-.32 1.85-.48 3.78-.48h.84v-1.33h-17.87v1.33Z" fill="#4A4843" data-color="1"/>
        <path d="M763.95 207.68c1.54 0 2.85.2 3.95.61 1.09.4 1.82.95 2.18 1.64.35.69.53 1.9.53 3.63v23.37l-23.14-30.58h-11.53v1.33c2.09 0 3.44.14 4.05.43.6.29 1.05.94 1.33 1.96s.42 3.03.42 6.02v20.72c0 2.36-.09 3.86-.27 4.5-.18.63-.76 1.22-1.74 1.77s-2.4.89-4.27 1.02v1.33h14.58v-1.33c-2.07 0-3.63-.3-4.67-.89-1.04-.6-1.67-1.25-1.89-1.96-.22-.71-.33-2.19-.33-4.44v-27.12l27.64 36.63h1.24v-32.33c0-1.67.13-2.86.39-3.56.26-.7.86-1.3 1.82-1.8.95-.5 2.25-.82 3.9-.95v-1.33h-14.18v1.33Z" fill="#4A4843" data-color="1"/>
        <path d="M801.71 207.11c3.34 0 6.34 1.03 9.01 3.08 2.66 2.06 4.42 5.72 5.29 10.98h1.24l-.35-14.81h-1.27c-.17 1.75-.67 3.44-1.5 5.07-1.17-1.46-2.94-2.79-5.32-3.99-2.37-1.2-5.02-1.8-7.94-1.8-3.54 0-6.78.83-9.74 2.48s-5.26 4.18-6.92 7.59c-1.65 3.41-2.48 7.05-2.48 10.91 0 5.88 1.79 10.61 5.37 14.18 3.58 3.57 8.2 5.36 13.85 5.36 5.34 0 9.73-1.94 13.17-5.82.9 1.19 1.53 2.56 1.87 4.12h1.24v-13.69h-1.24c-.23 2.27-.98 4.62-2.26 7.05-1.28 2.43-3.01 4.16-5.2 5.17-2.19 1.02-4.33 1.53-6.43 1.53-3.92 0-7.2-1.56-9.83-4.68-2.63-3.12-3.95-7.61-3.95-13.47 0-6.19 1.21-10.94 3.62-14.27 2.41-3.32 5.66-4.99 9.76-4.99Z" fill="#4A4843" data-color="1"/>
        <path d="M828.45 240.19c-.85 0-1.57.3-2.18.91-.61.61-.91 1.33-.91 2.18s.3 1.55.89 2.18c.6.62 1.33.94 2.19.94s1.58-.3 2.19-.91c.61-.6.92-1.34.92-2.2s-.3-1.57-.91-2.18c-.61-.6-1.34-.91-2.2-.91Z" fill="#4A4843" data-color="1"/>
        <path d="M0 0v191.49h835.56V0H0Zm827.56 183.49H8V8h819.56v175.49Z" fill="#4A4843" data-color="1"/>
    </g>
</svg>
