<?xml version="1.0" encoding="UTF-8"?>
<svg data-bbox="0.01 0 913.51 501.65" viewBox="0 0 913.51 501.64" xmlns="http://www.w3.org/2000/svg" data-type="color">
    <g>
        <path d="M381.9 261.55c7.96 5.16 15.93 10.31 24.93 16.14-9.26.68-17.22-.4-25.2-.47-43.58-1.41-87.16-2.79-130.74-4.29-2.79-.1-3.69 1.13-4.58 3.38-5.67 14.39-11.55 28.7-17.18 43.11-3.73 9.54-8.25 18.72-11.65 28.45-5.69 16.32-12.73 32.16-19.19 48.21-1.01-.55-1.08-1.61-1.39-2.54-13.58-39.71-27.26-79.38-40.61-119.16-1.57-4.68-4.01-6.11-8.5-6.19-11.97-.21-23.93-.66-35.9-1.07-27.41-.93-54.83-1.88-82.24-2.83-9.5-.53-19-1.06-29.64-1.66 10.74-6.45 20.58-12.36 30.41-18.27 16.91-9.87 33.82-19.74 50.72-29.61 6.8-3.4 13.26-7.38 19.6-11.57 7.22-4.1 14.36-8.33 21.68-12.23 2.87-1.52 2.98-3.23 2.28-6.06-5.81-23.41-11.48-46.86-17.17-70.31-1.3-5.37-2.51-10.77-3.92-16.84 16.39 8.02 31.89 15.62 47.4 23.21.94.42 1.87.85 2.81 1.27 15.31 8.42 31.01 16.04 46.8 23.51 6.02 4.88 12.02 5.17 18.05 0 .87-.75 1.87-1.35 2.81-2.02 15.15-8.26 29.96-17.08 44.6-26.2 1-.58 2-1.16 3-1.73 8.88-5.12 17.76-10.24 26.97-15.54-.06 1.14-.02 1.81-.14 2.44-5.72 30.01-11.45 60.02-17.2 90.03-.34 1.77-1.07 3.43 1.12 4.78 9.72 5.99 18.92 12.79 29.11 18.02 7.77 4.67 14.83 10.45 22.92 14.61 10.06 6.46 20.06 13.02 30.2 19.35 6.57 4.1 12.75 8.86 19.86 12.08Z" fill="#4A4843" data-color="1"/>
        <path d="M355.67 285.39c-33.41-1.08-67.93-2.19-101.94-3.36-2.31 5.84-4.67 11.71-6.96 17.42-3.06 7.62-6.22 15.49-9.25 23.25-1.59 4.06-3.31 8.05-4.98 11.91-2.4 5.55-4.66 10.79-6.56 16.23-4.09 11.73-8.9 23.3-13.54 34.49-1.92 4.63-3.91 9.42-5.81 14.12a9.004 9.004 0 0 1-3.25 4.03v98.17c24.38-16.37 48.76-32.76 73.2-49.04 2.26-1.5 2.27-3.34 2.28-5.54.05-21.49.84-43-.07-64.44-.47-10.95 2.39-17.78 12.31-22.95 9.93-5.17 18.91-12.17 28.44-18.45v83.88c1.53-1.06 2.85-1.97 4.17-2.89 16.75-11.78 33.4-23.7 50.32-35.24 4.14-2.82 5.79-5.8 5.85-10.86.35-29.97.99-59.93 1.57-89.9h-.11l-25.67-.83Z" fill="#4A4843" data-color="1"/>
        <path d="m188.4 396.54-.05-.18c-3.06-8.95-6.16-17.99-9.25-27.02-10.33-30.16-21.02-61.35-31.35-92.1 0-.02-.01-.03-.02-.05h-.11c-10.16-.18-20.45-.53-30.4-.88l-5.65-.19c-19.59-.66-39.18-1.34-58.77-2.02l-23.18-.8c-.05 37.95-.08 75.9-.22 113.85 0 2.66 1.4 3.83 3.18 5.13 17.04 12.5 34.06 25.04 51.12 37.51.93.68 1.71 2.22 2.96 1.55v-85.21c12.4 9.59 24.29 18.94 36.38 28.02 2.72 2.05 3.56 4.22 3.59 7.5.21 24.3.69 48.6.85 72.9.02 3.29 1.08 5.11 3.78 6.78 7.35 4.55 14.52 9.41 21.79 14.09 13.12 8.45 26.26 16.88 39.39 25.31v-97.76c-2.89-2.27-3.75-5.33-4.06-6.43Z" fill="#4A4843" data-color="1"/>
        <path d="M300.75 92.56a9.028 9.028 0 0 1 4.28 8.15c-.02.31-.02.57-.03.81-.02.76-.04 1.71-.26 2.84-5.57 29.22-11.15 58.43-16.74 87.64 2.24 1.43 4.44 2.88 6.6 4.29 4.87 3.2 9.54 6.26 14.33 8.98v-18.62c6.84 4 13.01 7.65 19.22 11.23 1.65.95 1.35 2.55 1.47 3.96.48 5.8.93 11.61 1.38 17.42 1.64 1.02 3.28 1.99 4.96 2.85.26.13.5.28.75.43 3.01 1.93 6.01 3.87 9.01 5.81 6.9 4.46 14.04 9.07 21.09 13.48 2.08 1.3 4.09 2.64 6.05 3.94 2.78 1.85 5.47 3.64 8.18 5.2-5.33-64.84-10.67-129.68-15.95-194.53-.22-2.73-1.1-4.43-3.68-5.83-23.54-12.77-47.03-25.64-70.42-38.67-3.55-1.98-4.19-1.16-4.77 2.46-2.34 14.62-5.03 29.19-7.5 43.79-2.6 15.36-5.16 30.72-7.72 46.09l20.56-11.85a9 9 0 0 1 9.21.13Zm9.59 55.9c2.8-22.41 5.63-44.82 8.46-67.23.55-4.38 1.15-8.75 1.72-13.12l.59.04 8.26 94.99c-6.36-3.69-12.05-7.01-17.77-10.28-1.92-1.1-1.46-2.8-1.26-4.39Z" fill="#4A4843" data-color="1"/>
        <path d="M77.11 206.7c1.27-.64 2.57-1.32 3.89-2.04-.18-13.24-.36-26.49-.66-39.73-.07-3 .73-4.89 3.41-6.4 4.33-2.44 8.42-5.31 12.65-7.93.94-.58 1.83-1.91 3-1.32 1.45.72.74 2.38.75 3.59.12 13.37.18 26.74.26 40.11l1.98-1.14c4.21-2.42 8.54-4.91 12.93-7.31-4.95-19.97-9.86-40.23-14.62-59.86l-1.93-7.98c-.44-1.81-.86-3.61-1.29-5.44l-.11.08c-5.81 3.72-11.64 7.42-18.28 11.65V50.74c-1.61.97-2.59 1.5-3.5 2.12-13.87 9.49-27.68 19.07-41.65 28.42-3 2-3.94 4.19-3.93 7.73.11 48.37.08 96.74.08 145.11l46.5-27.15c.17-.1.33-.19.51-.27Z" fill="#4A4843" data-color="1"/>
        <path d="m107.57 89.66 43.75 21.43c.42-28.67.85-57.35 1.24-86.02.08-5.86.01-11.73.01-18.11-17.67 10.83-34.79 21.39-52 31.8-2.47 1.49-2.04 3.54-2.04 5.62.02 15.31.05 30.61.07 45.92a8.997 8.997 0 0 1 8.97-.63Z" fill="#4A4843" data-color="1"/>
        <path d="M158.16 114.34c14.12 7.76 28.8 14.93 42.76 21.57.03-1.54.05-3.09.03-4.63-.03-2.5.55-3.59 3.3-3.46 4.49.21 8.99.18 13.48.01 2.6-.1 3.51.8 3.46 3.41-.02.79 0 1.57 0 2.36 12.31-6.82 25.48-14.61 40.14-23.73.08-.05.16-.1.25-.15l3-1.74.23-.13c-3.48-34.64-6.97-69.28-10.33-103.93-.28-2.86-.86-3.93-4-3.92-25.29.14-50.58.12-75.87.03-2.76 0-3.98.45-4.41 3.63-4.92 36.44-10.01 72.85-15.07 109.27l2.42 1.1c.21.1.42.2.62.31Zm45.61-24c1.98-16.7 3.72-33.43 5.54-50.15.24-2.23.27-4.51 1.42-6.96 2.48 21.02 4.82 41.53 7.39 62.02.53 4.25.05 6.08-5.02 5.87-10.74-.44-10.59-.11-9.33-10.79Z" fill="#4A4843" data-color="1"/>
        <path d="M413.46 188.81v-64.76h13.08v25.49h25.62v-25.49h13.08v64.76h-13.08v-28.32h-25.62v28.32h-13.08Z" fill="#4A4843" data-color="1"/>
        <path d="M475.79 164.69c0-4.12 1.02-8.11 3.05-11.97 2.03-3.86 4.91-6.8 8.64-8.83 3.72-2.03 7.88-3.05 12.48-3.05 7.1 0 12.91 2.3 17.45 6.91 4.53 4.61 6.8 10.43 6.8 17.47s-2.29 12.98-6.87 17.65c-4.58 4.67-10.34 7-17.29 7-4.3 0-8.4-.97-12.3-2.92-3.9-1.94-6.87-4.79-8.9-8.55-2.03-3.75-3.05-8.33-3.05-13.72Zm12.72.66c0 4.65 1.1 8.22 3.31 10.69 2.21 2.47 4.93 3.71 8.17 3.71s5.96-1.24 8.15-3.71c2.19-2.47 3.29-6.07 3.29-10.78s-1.1-8.13-3.29-10.6c-2.19-2.47-4.91-3.71-8.15-3.71s-5.96 1.24-8.17 3.71c-2.21 2.47-3.31 6.04-3.31 10.69Z" fill="#4A4843" data-color="1"/>
        <path d="M564.8 188.81v-7.02c-1.71 2.5-3.95 4.48-6.74 5.92-2.78 1.44-5.72 2.16-8.81 2.16s-5.98-.69-8.48-2.08c-2.5-1.38-4.31-3.33-5.43-5.83s-1.68-5.96-1.68-10.38v-29.69h12.41v21.56c0 6.6.23 10.64.68 12.13.46 1.49 1.29 2.67 2.5 3.53 1.21.87 2.74 1.3 4.59 1.3 2.12 0 4.02-.58 5.7-1.75 1.68-1.16 2.83-2.61 3.45-4.33s.93-5.94.93-12.66v-19.79h12.41v46.91H564.8Z" fill="#4A4843" data-color="1"/>
        <path d="m584.81 175.42 12.46-1.9c.53 2.42 1.6 4.25 3.22 5.5s3.89 1.88 6.8 1.88c3.21 0 5.62-.59 7.24-1.77 1.09-.82 1.63-1.93 1.63-3.31 0-.94-.29-1.72-.88-2.34-.62-.59-2-1.13-4.15-1.63-10.01-2.21-16.36-4.23-19.04-6.05-3.71-2.53-5.57-6.05-5.57-10.56 0-4.06 1.61-7.48 4.82-10.25 3.21-2.77 8.19-4.15 14.93-4.15s11.19 1.05 14.31 3.14c3.12 2.09 5.27 5.18 6.45 9.28l-11.71 2.16c-.5-1.83-1.45-3.22-2.85-4.2-1.4-.97-3.39-1.46-5.99-1.46-3.27 0-5.61.46-7.02 1.37-.94.65-1.41 1.49-1.41 2.52 0 .88.41 1.63 1.24 2.25 1.12.82 4.98 1.99 11.6 3.49s11.23 3.34 13.85 5.52c2.59 2.21 3.89 5.29 3.89 9.23 0 4.3-1.8 8-5.39 11.09s-8.91 4.64-15.95 4.64c-6.39 0-11.45-1.3-15.17-3.89-3.73-2.59-6.16-6.11-7.31-10.56Z" fill="#4A4843" data-color="1"/>
        <path d="M661.01 141.89v9.9h-8.48v18.91c0 3.83.08 6.06.24 6.69.16.63.53 1.16 1.1 1.57.58.41 1.27.62 2.1.62 1.15 0 2.81-.4 4.99-1.19l1.06 9.63c-2.89 1.24-6.16 1.85-9.81 1.85-2.24 0-4.26-.38-6.05-1.13-1.8-.75-3.11-1.72-3.95-2.92-.84-1.19-1.42-2.81-1.74-4.84-.27-1.44-.4-4.36-.4-8.75v-20.45h-5.7v-9.9h5.7v-9.32l12.46-7.24v16.57h8.48Z" fill="#4A4843" data-color="1"/>
        <path d="M666.75 164.69c0-4.12 1.02-8.11 3.05-11.97 2.03-3.86 4.91-6.8 8.64-8.83 3.72-2.03 7.88-3.05 12.48-3.05 7.1 0 12.91 2.3 17.45 6.91 4.53 4.61 6.8 10.43 6.8 17.47s-2.29 12.98-6.87 17.65c-4.58 4.67-10.34 7-17.29 7-4.3 0-8.4-.97-12.3-2.92-3.9-1.94-6.87-4.79-8.9-8.55-2.03-3.75-3.05-8.33-3.05-13.72Zm12.72.66c0 4.65 1.1 8.22 3.31 10.69 2.21 2.47 4.93 3.71 8.17 3.71s5.96-1.24 8.15-3.71c2.19-2.47 3.29-6.07 3.29-10.78s-1.1-8.13-3.29-10.6c-2.19-2.47-4.91-3.71-8.15-3.71s-5.96 1.24-8.17 3.71c-2.21 2.47-3.31 6.04-3.31 10.69Z" fill="#4A4843" data-color="1"/>
        <path d="M767.56 188.81h-12.41v-23.94c0-5.06-.26-8.34-.79-9.83-.53-1.49-1.39-2.64-2.58-3.47-1.19-.82-2.63-1.24-4.31-1.24-2.15 0-4.08.59-5.79 1.77-1.71 1.18-2.88 2.74-3.51 4.68-.63 1.94-.95 5.54-.95 10.78v21.25h-12.41V141.9h11.53v6.89c4.09-5.3 9.25-7.95 15.46-7.95 2.74 0 5.24.49 7.51 1.48 2.27.99 3.98 2.25 5.15 3.78s1.97 3.27 2.43 5.21c.46 1.94.68 4.73.68 8.35v29.16Z" fill="#4A4843" data-color="1"/>
        <path d="M471.81 285.24h-14.22l-5.65-14.71h-25.89l-5.34 14.71h-13.87l25.22-64.76h13.83l25.93 64.76Zm-24.08-25.62-8.92-24.03-8.75 24.03h17.67Z" fill="#4A4843" data-color="1"/>
        <path d="M478.31 238.32h11.57v6.89c1.5-2.36 3.53-4.27 6.1-5.74 2.56-1.47 5.4-2.21 8.53-2.21 5.45 0 10.07 2.14 13.87 6.41 3.8 4.27 5.7 10.22 5.7 17.85s-1.92 13.92-5.74 18.27c-3.83 4.34-8.47 6.52-13.92 6.52-2.59 0-4.94-.52-7.05-1.55-2.11-1.03-4.32-2.8-6.65-5.3v23.63h-12.41v-64.76Zm12.28 22.66c0 5.27 1.04 9.17 3.14 11.68 2.09 2.52 4.64 3.78 7.64 3.78s5.29-1.16 7.2-3.47c1.91-2.31 2.87-6.1 2.87-11.38 0-4.92-.99-8.57-2.96-10.96-1.97-2.39-4.42-3.58-7.33-3.58s-5.55 1.17-7.55 3.51-3 5.81-3 10.4Z" fill="#4A4843" data-color="1"/>
        <path d="m543.2 252.63-11.26-2.03c1.27-4.54 3.45-7.89 6.54-10.07 3.09-2.18 7.69-3.27 13.78-3.27 5.54 0 9.66.66 12.37 1.97 2.71 1.31 4.62 2.97 5.72 4.99 1.1 2.02 1.66 5.72 1.66 11.11l-.13 14.49c0 4.12.2 7.16.6 9.12.4 1.96 1.14 4.06 2.23 6.29h-12.28c-.32-.82-.72-2.05-1.19-3.67-.21-.74-.35-1.22-.44-1.46-2.12 2.06-4.39 3.61-6.8 4.64-2.42 1.03-4.99 1.55-7.73 1.55-4.83 0-8.64-1.31-11.42-3.93-2.78-2.62-4.17-5.93-4.17-9.94 0-2.65.63-5.01 1.9-7.09s3.04-3.67 5.32-4.77c2.28-1.1 5.57-2.07 9.87-2.89 5.8-1.09 9.82-2.11 12.06-3.05v-1.24c0-2.39-.59-4.09-1.77-5.1-1.18-1.02-3.4-1.52-6.67-1.52-2.21 0-3.93.43-5.17 1.3-1.24.87-2.24 2.39-3 4.57Zm16.61 10.07c-1.59.53-4.11 1.16-7.55 1.9-3.45.74-5.7 1.46-6.76 2.16-1.62 1.15-2.43 2.61-2.43 4.37s.65 3.24 1.94 4.51c1.3 1.27 2.95 1.9 4.95 1.9 2.24 0 4.37-.74 6.41-2.21 1.5-1.12 2.49-2.49 2.96-4.11.32-1.06.49-3.08.49-6.05v-2.47Z" fill="#4A4843" data-color="1"/>
        <path d="M596.12 285.24h-12.41v-46.91h11.53V245c1.97-3.15 3.75-5.23 5.32-6.23 1.58-1 3.36-1.5 5.37-1.5 2.83 0 5.55.78 8.17 2.34l-3.84 10.82c-2.09-1.35-4.04-2.03-5.83-2.03s-3.21.48-4.42 1.44-2.16 2.69-2.85 5.19c-.69 2.5-1.04 7.75-1.04 15.73v14.49Z" fill="#4A4843" data-color="1"/>
        <path d="M640.96 238.32v9.9h-8.48v18.91c0 3.83.08 6.06.24 6.69.16.63.53 1.16 1.1 1.57.58.41 1.27.62 2.1.62 1.15 0 2.81-.4 4.99-1.19l1.06 9.63c-2.89 1.24-6.16 1.85-9.81 1.85-2.24 0-4.26-.38-6.05-1.13-1.8-.75-3.11-1.72-3.95-2.92-.84-1.19-1.42-2.81-1.74-4.84-.27-1.44-.4-4.36-.4-8.75v-20.45h-5.7v-9.9h5.7v-9.32l12.46-7.24v16.57h8.48Z" fill="#4A4843" data-color="1"/>
        <path d="M648.64 238.32h11.44v6.41c4.09-4.98 8.97-7.47 14.62-7.47 3 0 5.61.62 7.82 1.86 2.21 1.24 4.02 3.11 5.43 5.61 2.06-2.5 4.28-4.37 6.67-5.61 2.39-1.24 4.93-1.86 7.64-1.86 3.45 0 6.36.7 8.75 2.1 2.39 1.4 4.17 3.45 5.35 6.16.85 2 1.28 5.24 1.28 9.72v29.99h-12.41v-26.81c0-4.65-.43-7.66-1.28-9.01-1.15-1.77-2.92-2.65-5.3-2.65-1.74 0-3.37.53-4.9 1.59-1.53 1.06-2.64 2.61-3.31 4.66-.68 2.05-1.02 5.28-1.02 9.7v22.53h-12.41v-25.71c0-4.56-.22-7.51-.66-8.83s-1.13-2.31-2.05-2.96c-.93-.65-2.19-.97-3.78-.97-1.92 0-3.64.52-5.17 1.55-1.53 1.03-2.63 2.52-3.29 4.46-.66 1.94-.99 5.17-.99 9.67v22.79h-12.41v-46.91Z" fill="#4A4843" data-color="1"/>
        <path d="m757.18 270.3 12.37 2.08c-1.59 4.54-4.1 7.99-7.53 10.36-3.43 2.37-7.72 3.56-12.88 3.56-8.16 0-14.2-2.67-18.11-8-3.09-4.27-4.64-9.66-4.64-16.17 0-7.77 2.03-13.86 6.1-18.27 4.06-4.4 9.2-6.6 15.42-6.6 6.98 0 12.49 2.3 16.52 6.91 4.04 4.61 5.96 11.67 5.79 21.18h-31.1c.09 3.68 1.09 6.55 3 8.59 1.91 2.05 4.3 3.07 7.16 3.07 1.94 0 3.58-.53 4.9-1.59 1.33-1.06 2.33-2.77 3-5.12Zm.71-12.55c-.09-3.59-1.02-6.32-2.78-8.19s-3.92-2.81-6.45-2.81c-2.71 0-4.95.99-6.71 2.96-1.77 1.97-2.64 4.65-2.61 8.04h18.55Z" fill="#4A4843" data-color="1"/>
        <path d="M823 285.24h-12.41V261.3c0-5.06-.26-8.34-.79-9.83-.53-1.49-1.39-2.64-2.58-3.47-1.19-.82-2.63-1.24-4.31-1.24-2.15 0-4.08.59-5.79 1.77-1.71 1.18-2.88 2.74-3.51 4.68-.63 1.94-.95 5.54-.95 10.78v21.25h-12.41v-46.91h11.53v6.89c4.09-5.3 9.25-7.95 15.46-7.95 2.74 0 5.24.49 7.51 1.48 2.27.99 3.98 2.25 5.15 3.78s1.97 3.27 2.43 5.21c.46 1.94.68 4.73.68 8.35v29.16Z" fill="#4A4843" data-color="1"/>
        <path d="M857.1 238.32v9.9h-8.48v18.91c0 3.83.08 6.06.24 6.69.16.63.53 1.16 1.1 1.57.58.41 1.27.62 2.1.62 1.15 0 2.81-.4 4.99-1.19l1.06 9.63c-2.89 1.24-6.16 1.85-9.81 1.85-2.24 0-4.26-.38-6.05-1.13-1.8-.75-3.11-1.72-3.95-2.92-.84-1.19-1.42-2.81-1.74-4.84-.27-1.44-.4-4.36-.4-8.75v-20.45h-5.7v-9.9h5.7v-9.32l12.46-7.24v16.57h8.48Z" fill="#4A4843" data-color="1"/>
        <path d="M471.81 381.66h-14.22l-5.65-14.71h-25.89l-5.34 14.71h-13.87l25.22-64.76h13.83l25.93 64.76Zm-24.08-25.62-8.92-24.03-8.75 24.03h17.67Z" fill="#4A4843" data-color="1"/>
        <path d="m474.29 368.28 12.46-1.9c.53 2.42 1.6 4.25 3.22 5.5s3.89 1.88 6.8 1.88c3.21 0 5.62-.59 7.24-1.77 1.09-.82 1.63-1.93 1.63-3.31 0-.94-.29-1.72-.88-2.34-.62-.59-2-1.13-4.15-1.63-10.01-2.21-16.36-4.23-19.04-6.05-3.71-2.53-5.57-6.05-5.57-10.56 0-4.06 1.61-7.48 4.82-10.25 3.21-2.77 8.19-4.15 14.93-4.15s11.19 1.05 14.31 3.14c3.12 2.09 5.27 5.18 6.45 9.28l-11.71 2.16c-.5-1.83-1.45-3.22-2.85-4.2-1.4-.97-3.39-1.46-5.99-1.46-3.27 0-5.61.46-7.02 1.37-.94.65-1.41 1.49-1.41 2.52 0 .88.41 1.63 1.24 2.25 1.12.82 4.98 1.99 11.6 3.49s11.23 3.34 13.85 5.52c2.59 2.21 3.89 5.29 3.89 9.23 0 4.3-1.8 8-5.39 11.09s-8.91 4.64-15.95 4.64c-6.39 0-11.45-1.3-15.17-3.89-3.73-2.59-6.16-6.11-7.31-10.56Z" fill="#4A4843" data-color="1"/>
        <path d="m524.6 368.28 12.46-1.9c.53 2.42 1.6 4.25 3.22 5.5s3.89 1.88 6.8 1.88c3.21 0 5.62-.59 7.24-1.77 1.09-.82 1.63-1.93 1.63-3.31 0-.94-.29-1.72-.88-2.34-.62-.59-2-1.13-4.15-1.63-10.01-2.21-16.36-4.23-19.04-6.05-3.71-2.53-5.57-6.05-5.57-10.56 0-4.06 1.61-7.48 4.82-10.25 3.21-2.77 8.19-4.15 14.93-4.15s11.19 1.05 14.31 3.14c3.12 2.09 5.27 5.18 6.45 9.28l-11.71 2.16c-.5-1.83-1.45-3.22-2.85-4.2-1.4-.97-3.39-1.46-5.99-1.46-3.27 0-5.61.46-7.02 1.37-.94.65-1.41 1.49-1.41 2.52 0 .88.41 1.63 1.24 2.25 1.12.82 4.98 1.99 11.6 3.49s11.23 3.34 13.85 5.52c2.59 2.21 3.89 5.29 3.89 9.23 0 4.3-1.8 8-5.39 11.09s-8.91 4.64-15.95 4.64c-6.39 0-11.45-1.3-15.17-3.89-3.73-2.59-6.16-6.11-7.31-10.56Z" fill="#4A4843" data-color="1"/>
        <path d="M576.42 357.55c0-4.12 1.02-8.11 3.05-11.97 2.03-3.86 4.91-6.8 8.64-8.83 3.72-2.03 7.88-3.05 12.48-3.05 7.1 0 12.91 2.3 17.45 6.91 4.53 4.61 6.8 10.43 6.8 17.47s-2.29 12.98-6.87 17.65c-4.58 4.67-10.34 7-17.29 7-4.3 0-8.4-.97-12.3-2.92-3.9-1.94-6.87-4.79-8.9-8.55-2.03-3.75-3.05-8.33-3.05-13.72Zm12.72.66c0 4.65 1.1 8.22 3.31 10.69 2.21 2.47 4.93 3.71 8.17 3.71s5.96-1.24 8.15-3.71c2.19-2.47 3.29-6.07 3.29-10.78s-1.1-8.13-3.29-10.6c-2.19-2.47-4.91-3.71-8.15-3.71s-5.96 1.24-8.17 3.71c-2.21 2.47-3.31 6.04-3.31 10.69Z" fill="#4A4843" data-color="1"/>
        <path d="m675.46 348.62-12.24 2.21c-.41-2.44-1.35-4.28-2.8-5.52-1.46-1.24-3.35-1.85-5.68-1.85-3.09 0-5.56 1.07-7.4 3.2-1.84 2.14-2.76 5.71-2.76 10.71 0 5.57.93 9.5 2.8 11.79s4.38 3.45 7.53 3.45c2.36 0 4.29-.67 5.79-2.01 1.5-1.34 2.56-3.64 3.18-6.91l12.19 2.08c-1.27 5.6-3.7 9.82-7.29 12.68-3.59 2.86-8.41 4.28-14.45 4.28-6.86 0-12.33-2.16-16.41-6.49s-6.12-10.32-6.12-17.98 2.05-13.77 6.14-18.09c4.09-4.31 9.63-6.47 16.61-6.47 5.71 0 10.25 1.23 13.63 3.69 3.37 2.46 5.79 6.21 7.27 11.24Z" fill="#4A4843" data-color="1"/>
        <path d="M684.87 328.39V316.9h12.41v11.49h-12.41Zm0 53.27v-46.91h12.41v46.91h-12.41Z" fill="#4A4843" data-color="1"/>
        <path d="m719.28 349.06-11.26-2.03c1.27-4.54 3.45-7.89 6.54-10.07 3.09-2.18 7.69-3.27 13.78-3.27 5.54 0 9.66.66 12.37 1.97 2.71 1.31 4.62 2.97 5.72 4.99 1.1 2.02 1.66 5.72 1.66 11.11l-.13 14.49c0 4.12.2 7.16.6 9.12.4 1.96 1.14 4.06 2.23 6.29h-12.28c-.32-.82-.72-2.05-1.19-3.67-.21-.74-.35-1.22-.44-1.46-2.12 2.06-4.39 3.61-6.8 4.64-2.42 1.03-4.99 1.55-7.73 1.55-4.83 0-8.64-1.31-11.42-3.93-2.78-2.62-4.17-5.93-4.17-9.94 0-2.65.63-5.01 1.9-7.09s3.04-3.67 5.32-4.77c2.28-1.1 5.57-2.07 9.87-2.89 5.8-1.09 9.82-2.11 12.06-3.05v-1.24c0-2.39-.59-4.09-1.77-5.1-1.18-1.02-3.4-1.52-6.67-1.52-2.21 0-3.93.43-5.17 1.3-1.24.87-2.24 2.39-3 4.57Zm16.61 10.07c-1.59.53-4.11 1.16-7.55 1.9-3.45.74-5.7 1.46-6.76 2.16-1.62 1.15-2.43 2.61-2.43 4.37s.65 3.24 1.94 4.51c1.3 1.27 2.95 1.9 4.95 1.9 2.24 0 4.37-.74 6.41-2.21 1.5-1.12 2.49-2.49 2.96-4.11.32-1.06.49-3.08.49-6.05v-2.47Z" fill="#4A4843" data-color="1"/>
        <path d="M781.83 334.75v9.9h-8.48v18.91c0 3.83.08 6.06.24 6.69.16.63.53 1.16 1.1 1.57.58.41 1.27.62 2.1.62 1.15 0 2.81-.4 4.99-1.19l1.06 9.63c-2.89 1.24-6.16 1.85-9.81 1.85-2.24 0-4.26-.38-6.05-1.13-1.8-.75-3.11-1.72-3.95-2.92-.84-1.19-1.42-2.81-1.74-4.84-.27-1.44-.4-4.36-.4-8.75v-20.45h-5.7v-9.9h5.7v-9.32l12.46-7.24v16.57h8.48Z" fill="#4A4843" data-color="1"/>
        <path d="M790.44 328.39V316.9h12.41v11.49h-12.41Zm0 53.27v-46.91h12.41v46.91h-12.41Z" fill="#4A4843" data-color="1"/>
        <path d="M812.71 357.55c0-4.12 1.02-8.11 3.05-11.97 2.03-3.86 4.91-6.8 8.64-8.83 3.72-2.03 7.88-3.05 12.48-3.05 7.1 0 12.91 2.3 17.45 6.91 4.53 4.61 6.8 10.43 6.8 17.47s-2.29 12.98-6.87 17.65c-4.58 4.67-10.34 7-17.29 7-4.3 0-8.4-.97-12.3-2.92-3.9-1.94-6.87-4.79-8.9-8.55-2.03-3.75-3.05-8.33-3.05-13.72Zm12.72.66c0 4.65 1.1 8.22 3.31 10.69 2.21 2.47 4.93 3.71 8.17 3.71s5.96-1.24 8.15-3.71c2.19-2.47 3.29-6.07 3.29-10.78s-1.1-8.13-3.29-10.6c-2.19-2.47-4.91-3.71-8.15-3.71s-5.96 1.24-8.17 3.71c-2.21 2.47-3.31 6.04-3.31 10.69Z" fill="#4A4843" data-color="1"/>
        <path d="M913.51 381.66H901.1v-23.94c0-5.06-.26-8.34-.79-9.83-.53-1.49-1.39-2.64-2.58-3.47-1.19-.82-2.63-1.24-4.31-1.24-2.15 0-4.08.59-5.79 1.77-1.71 1.18-2.88 2.74-3.51 4.68-.63 1.94-.95 5.54-.95 10.78v21.25h-12.41v-46.91h11.53v6.89c4.09-5.3 9.25-7.95 15.46-7.95 2.74 0 5.24.49 7.51 1.48 2.27.99 3.98 2.25 5.15 3.78s1.97 3.27 2.43 5.21c.46 1.94.68 4.73.68 8.35v29.16Z" fill="#4A4843" data-color="1"/>
    </g>
</svg>
